<svg width="393" height="852" viewBox="0 0 393 852" fill="none" xmlns="http://www.w3.org/2000/svg">
<rect width="393" height="852" fill="white"/>
<path d="M109.039 364.299C109.039 364.299 130.65 330.025 152.729 323.304C174.808 316.584 190.941 329.089 192.385 330.364C193.83 331.64 206.226 341.93 210.134 354.432C213.784 366.169 214.946 369.415 215.483 372.053C216.217 375.656 219.814 394.151 239.768 390.153C254.46 386.41 254.373 371.527 252.676 365.404C250.98 359.28 245.798 339.463 233.825 324.664C221.852 309.866 206.396 297.027 188.732 293.794C171.068 290.561 155.87 288.607 138.292 296.772C120.715 304.936 107.297 319.054 98.042 332.153C88.787 345.252 73.9276 370.423 64.67 396.363C55.4125 422.304 50.6054 439.823 50.0653 443.566C49.5253 447.309 52.3861 451.774 56.6888 452.667C60.9915 453.56 65.5209 452.751 67.3882 449.095C69.2555 445.439 77.173 424.016 79.4454 419.413C85.2205 407.72 100.205 376.561 109.039 364.302V364.299Z" fill="#F5E82E"/>
<path d="M282.561 379.7C282.561 379.7 260.95 413.973 238.871 420.694C216.792 427.414 200.658 414.909 199.214 413.634C197.769 412.358 185.373 402.068 181.465 389.566C177.815 377.829 176.653 374.584 176.115 371.946C175.382 368.343 171.785 349.848 151.83 353.846C137.139 357.589 137.225 372.471 138.922 378.595C140.621 384.718 145.8 404.535 157.773 419.334C169.747 434.132 185.202 446.973 202.864 450.206C220.526 453.439 235.727 455.393 253.305 447.229C270.883 439.064 284.301 424.947 293.556 411.848C302.811 398.751 317.673 373.576 326.928 347.636C336.183 321.695 340.993 304.177 341.533 300.434C342.073 296.691 339.212 292.226 334.909 291.333C330.607 290.44 326.077 291.249 324.21 294.905C322.342 298.561 314.425 319.983 312.152 324.586C306.377 336.279 291.393 367.437 282.558 379.697L282.561 379.7Z" fill="#F5E82E"/>
<path d="M90.7 516H85.57L76.99 503.01V516H71.86V494.94H76.99L85.57 507.99V494.94H90.7V516ZM110.199 507.36C110.199 507.84 110.169 508.34 110.109 508.86H98.4986C98.5786 509.9 98.9086 510.7 99.4886 511.26C100.089 511.8 100.819 512.07 101.679 512.07C102.959 512.07 103.849 511.53 104.349 510.45H109.809C109.529 511.55 109.019 512.54 108.279 513.42C107.559 514.3 106.649 514.99 105.549 515.49C104.449 515.99 103.219 516.24 101.859 516.24C100.219 516.24 98.7586 515.89 97.4786 515.19C96.1986 514.49 95.1986 513.49 94.4786 512.19C93.7586 510.89 93.3986 509.37 93.3986 507.63C93.3986 505.89 93.7486 504.37 94.4486 503.07C95.1686 501.77 96.1686 500.77 97.4486 500.07C98.7286 499.37 100.199 499.02 101.859 499.02C103.479 499.02 104.919 499.36 106.179 500.04C107.439 500.72 108.419 501.69 109.119 502.95C109.839 504.21 110.199 505.68 110.199 507.36ZM104.949 506.01C104.949 505.13 104.649 504.43 104.049 503.91C103.449 503.39 102.699 503.13 101.799 503.13C100.939 503.13 100.209 503.38 99.6086 503.88C99.0286 504.38 98.6686 505.09 98.5286 506.01H104.949ZM120.435 511.2L124.065 499.26H129.525L123.585 516H117.255L111.315 499.26H116.805L120.435 511.2ZM130.664 507.6C130.664 505.88 130.984 504.37 131.624 503.07C132.284 501.77 133.174 500.77 134.294 500.07C135.414 499.37 136.664 499.02 138.044 499.02C139.224 499.02 140.254 499.26 141.134 499.74C142.034 500.22 142.724 500.85 143.204 501.63V499.26H148.334V516H143.204V513.63C142.704 514.41 142.004 515.04 141.104 515.52C140.224 516 139.194 516.24 138.014 516.24C136.654 516.24 135.414 515.89 134.294 515.19C133.174 514.47 132.284 513.46 131.624 512.16C130.984 510.84 130.664 509.32 130.664 507.6ZM143.204 507.63C143.204 506.35 142.844 505.34 142.124 504.6C141.424 503.86 140.564 503.49 139.544 503.49C138.524 503.49 137.654 503.86 136.934 504.6C136.234 505.32 135.884 506.32 135.884 507.6C135.884 508.88 136.234 509.9 136.934 510.66C137.654 511.4 138.524 511.77 139.544 511.77C140.564 511.77 141.424 511.4 142.124 510.66C142.844 509.92 143.204 508.91 143.204 507.63ZM166.023 516.21C164.483 516.21 163.103 515.96 161.883 515.46C160.663 514.96 159.683 514.22 158.943 513.24C158.223 512.26 157.843 511.08 157.803 509.7H163.263C163.343 510.48 163.613 511.08 164.073 511.5C164.533 511.9 165.133 512.1 165.873 512.1C166.633 512.1 167.233 511.93 167.673 511.59C168.113 511.23 168.333 510.74 168.333 510.12C168.333 509.6 168.153 509.17 167.793 508.83C167.453 508.49 167.023 508.21 166.503 507.99C166.003 507.77 165.283 507.52 164.343 507.24C162.983 506.82 161.873 506.4 161.013 505.98C160.153 505.56 159.413 504.94 158.793 504.12C158.173 503.3 157.863 502.23 157.863 500.91C157.863 498.95 158.573 497.42 159.993 496.32C161.413 495.2 163.263 494.64 165.543 494.64C167.863 494.64 169.733 495.2 171.153 496.32C172.573 497.42 173.333 498.96 173.433 500.94H167.883C167.843 500.26 167.593 499.73 167.133 499.35C166.673 498.95 166.083 498.75 165.363 498.75C164.743 498.75 164.243 498.92 163.863 499.26C163.483 499.58 163.293 500.05 163.293 500.67C163.293 501.35 163.613 501.88 164.253 502.26C164.893 502.64 165.893 503.05 167.253 503.49C168.613 503.95 169.713 504.39 170.553 504.81C171.413 505.23 172.153 505.84 172.773 506.64C173.393 507.44 173.703 508.47 173.703 509.73C173.703 510.93 173.393 512.02 172.773 513C172.173 513.98 171.293 514.76 170.133 515.34C168.973 515.92 167.603 516.21 166.023 516.21ZM181.99 501.63C182.49 500.85 183.18 500.22 184.06 499.74C184.94 499.26 185.97 499.02 187.15 499.02C188.53 499.02 189.78 499.37 190.9 500.07C192.02 500.77 192.9 501.77 193.54 503.07C194.2 504.37 194.53 505.88 194.53 507.6C194.53 509.32 194.2 510.84 193.54 512.16C192.9 513.46 192.02 514.47 190.9 515.19C189.78 515.89 188.53 516.24 187.15 516.24C185.99 516.24 184.96 516 184.06 515.52C183.18 515.04 182.49 514.42 181.99 513.66V523.98H176.86V499.26H181.99V501.63ZM189.31 507.6C189.31 506.32 188.95 505.32 188.23 504.6C187.53 503.86 186.66 503.49 185.62 503.49C184.6 503.49 183.73 503.86 183.01 504.6C182.31 505.34 181.96 506.35 181.96 507.63C181.96 508.91 182.31 509.92 183.01 510.66C183.73 511.4 184.6 511.77 185.62 511.77C186.64 511.77 187.51 511.4 188.23 510.66C188.95 509.9 189.31 508.88 189.31 507.6ZM204.841 516.24C203.201 516.24 201.721 515.89 200.401 515.19C199.101 514.49 198.071 513.49 197.311 512.19C196.571 510.89 196.201 509.37 196.201 507.63C196.201 505.91 196.581 504.4 197.341 503.1C198.101 501.78 199.141 500.77 200.461 500.07C201.781 499.37 203.261 499.02 204.901 499.02C206.541 499.02 208.021 499.37 209.341 500.07C210.661 500.77 211.701 501.78 212.461 503.1C213.221 504.4 213.601 505.91 213.601 507.63C213.601 509.35 213.211 510.87 212.431 512.19C211.671 513.49 210.621 514.49 209.281 515.19C207.961 515.89 206.481 516.24 204.841 516.24ZM204.841 511.8C205.821 511.8 206.651 511.44 207.331 510.72C208.031 510 208.381 508.97 208.381 507.63C208.381 506.29 208.041 505.26 207.361 504.54C206.701 503.82 205.881 503.46 204.901 503.46C203.901 503.46 203.071 503.82 202.411 504.54C201.751 505.24 201.421 506.27 201.421 507.63C201.421 508.97 201.741 510 202.381 510.72C203.041 511.44 203.861 511.8 204.841 511.8ZM221.453 502.05C222.053 501.13 222.803 500.41 223.703 499.89C224.603 499.35 225.603 499.08 226.703 499.08V504.51H225.293C224.013 504.51 223.053 504.79 222.413 505.35C221.773 505.89 221.453 506.85 221.453 508.23V516H216.323V499.26H221.453V502.05ZM238.485 511.65V516H235.875C234.015 516 232.565 515.55 231.525 514.65C230.485 513.73 229.965 512.24 229.965 510.18V503.52H227.925V499.26H229.965V495.18H235.095V499.26H238.455V503.52H235.095V510.24C235.095 510.74 235.215 511.1 235.455 511.32C235.695 511.54 236.095 511.65 236.655 511.65H238.485ZM243.742 516.24C242.842 516.24 242.102 515.98 241.522 515.46C240.962 514.92 240.682 514.26 240.682 513.48C240.682 512.68 240.962 512.01 241.522 511.47C242.102 510.93 242.842 510.66 243.742 510.66C244.622 510.66 245.342 510.93 245.902 511.47C246.482 512.01 246.772 512.68 246.772 513.48C246.772 514.26 246.482 514.92 245.902 515.46C245.342 515.98 244.622 516.24 243.742 516.24ZM243.742 504.03C242.842 504.03 242.102 503.77 241.522 503.25C240.962 502.71 240.682 502.05 240.682 501.27C240.682 500.47 240.962 499.8 241.522 499.26C242.102 498.72 242.842 498.45 243.742 498.45C244.622 498.45 245.342 498.72 245.902 499.26C246.482 499.8 246.772 500.47 246.772 501.27C246.772 502.05 246.482 502.71 245.902 503.25C245.342 503.77 244.622 504.03 243.742 504.03ZM272.275 501.72C272.275 502.94 271.995 504.06 271.435 505.08C270.875 506.08 270.015 506.89 268.855 507.51C267.695 508.13 266.255 508.44 264.535 508.44H261.355V516H256.225V494.94H264.535C266.215 494.94 267.635 495.23 268.795 495.81C269.955 496.39 270.825 497.19 271.405 498.21C271.985 499.23 272.275 500.4 272.275 501.72ZM264.145 504.36C265.125 504.36 265.855 504.13 266.335 503.67C266.815 503.21 267.055 502.56 267.055 501.72C267.055 500.88 266.815 500.23 266.335 499.77C265.855 499.31 265.125 499.08 264.145 499.08H261.355V504.36H264.145ZM280.076 493.8V516H274.946V493.8H280.076ZM282.774 507.6C282.774 505.88 283.094 504.37 283.734 503.07C284.394 501.77 285.284 500.77 286.404 500.07C287.524 499.37 288.774 499.02 290.154 499.02C291.334 499.02 292.364 499.26 293.244 499.74C294.144 500.22 294.834 500.85 295.314 501.63V499.26H300.444V516H295.314V513.63C294.814 514.41 294.114 515.04 293.214 515.52C292.334 516 291.304 516.24 290.124 516.24C288.764 516.24 287.524 515.89 286.404 515.19C285.284 514.47 284.394 513.46 283.734 512.16C283.094 510.84 282.774 509.32 282.774 507.6ZM295.314 507.63C295.314 506.35 294.954 505.34 294.234 504.6C293.534 503.86 292.674 503.49 291.654 503.49C290.634 503.49 289.764 503.86 289.044 504.6C288.344 505.32 287.994 506.32 287.994 507.6C287.994 508.88 288.344 509.9 289.044 510.66C289.764 511.4 290.634 511.77 291.654 511.77C292.674 511.77 293.534 511.4 294.234 510.66C294.954 509.92 295.314 508.91 295.314 507.63ZM321.255 499.26L310.755 523.95H305.235L309.075 515.43L302.265 499.26H307.995L311.865 509.73L315.705 499.26H321.255Z" fill="#1E1E1E"/>
<path d="M90.831 544.364H92.2173V553.523H92.331L98.6946 544.364H100.058V556H98.6491V546.864H98.5355L92.1946 556H90.831V544.364ZM108.082 547.273V548.523H104.037V556H102.696V547.273H108.082ZM110.04 559.273V547.273H111.335V548.659H111.494C111.593 548.508 111.729 548.314 111.903 548.08C112.081 547.841 112.335 547.629 112.665 547.443C112.998 547.254 113.449 547.159 114.017 547.159C114.752 547.159 115.4 547.343 115.96 547.71C116.521 548.078 116.958 548.598 117.273 549.273C117.587 549.947 117.744 550.742 117.744 551.659C117.744 552.583 117.587 553.384 117.273 554.062C116.958 554.737 116.523 555.259 115.966 555.631C115.409 555.998 114.767 556.182 114.04 556.182C113.479 556.182 113.03 556.089 112.693 555.903C112.356 555.714 112.097 555.5 111.915 555.261C111.733 555.019 111.593 554.818 111.494 554.659H111.381V559.273H110.04ZM111.358 551.636C111.358 552.295 111.455 552.877 111.648 553.381C111.841 553.881 112.123 554.273 112.494 554.557C112.866 554.837 113.32 554.977 113.858 554.977C114.419 554.977 114.886 554.83 115.261 554.534C115.64 554.235 115.924 553.833 116.114 553.33C116.307 552.822 116.403 552.258 116.403 551.636C116.403 551.023 116.309 550.47 116.119 549.977C115.934 549.481 115.652 549.089 115.273 548.801C114.898 548.509 114.426 548.364 113.858 548.364C113.313 548.364 112.854 548.502 112.483 548.778C112.112 549.051 111.831 549.434 111.642 549.926C111.453 550.415 111.358 550.985 111.358 551.636ZM122.358 556.205C121.805 556.205 121.303 556.1 120.852 555.892C120.402 555.68 120.044 555.375 119.778 554.977C119.513 554.576 119.381 554.091 119.381 553.523C119.381 553.023 119.479 552.617 119.676 552.307C119.873 551.992 120.136 551.746 120.466 551.568C120.795 551.39 121.159 551.258 121.557 551.17C121.958 551.08 122.362 551.008 122.767 550.955C123.297 550.886 123.727 550.835 124.057 550.801C124.39 550.763 124.633 550.701 124.784 550.614C124.939 550.527 125.017 550.375 125.017 550.159V550.114C125.017 549.553 124.864 549.117 124.557 548.807C124.254 548.496 123.794 548.341 123.176 548.341C122.536 548.341 122.034 548.481 121.67 548.761C121.307 549.042 121.051 549.341 120.903 549.659L119.631 549.205C119.858 548.674 120.161 548.261 120.54 547.966C120.922 547.667 121.339 547.458 121.79 547.341C122.244 547.22 122.691 547.159 123.131 547.159C123.411 547.159 123.733 547.193 124.097 547.261C124.464 547.326 124.818 547.46 125.159 547.665C125.504 547.869 125.79 548.178 126.017 548.591C126.244 549.004 126.358 549.557 126.358 550.25V556H125.017V554.818H124.949C124.858 555.008 124.706 555.21 124.494 555.426C124.282 555.642 124 555.826 123.648 555.977C123.295 556.129 122.866 556.205 122.358 556.205ZM122.562 555C123.093 555 123.54 554.896 123.903 554.688C124.271 554.479 124.547 554.21 124.733 553.881C124.922 553.551 125.017 553.205 125.017 552.841V551.614C124.96 551.682 124.835 551.744 124.642 551.801C124.453 551.854 124.233 551.902 123.983 551.943C123.737 551.981 123.496 552.015 123.261 552.045C123.03 552.072 122.843 552.095 122.699 552.114C122.35 552.159 122.025 552.233 121.722 552.335C121.422 552.434 121.18 552.583 120.994 552.784C120.813 552.981 120.722 553.25 120.722 553.591C120.722 554.057 120.894 554.409 121.239 554.648C121.587 554.883 122.028 555 122.562 555ZM130.146 554.023L134.351 547.273H135.896V556H134.555V549.25L130.374 556H128.805V547.273H130.146V554.023ZM133.464 544.364H134.714C134.714 544.977 134.502 545.479 134.078 545.869C133.654 546.259 133.078 546.455 132.351 546.455C131.635 546.455 131.065 546.259 130.641 545.869C130.22 545.479 130.01 544.977 130.01 544.364H131.26C131.26 544.659 131.341 544.919 131.504 545.142C131.671 545.366 131.953 545.477 132.351 545.477C132.749 545.477 133.033 545.366 133.203 545.142C133.377 544.919 133.464 544.659 133.464 544.364ZM140.352 554.409L140.261 555.023C140.197 555.455 140.098 555.917 139.966 556.409C139.837 556.902 139.703 557.366 139.562 557.801C139.422 558.237 139.307 558.583 139.216 558.841H138.193C138.242 558.598 138.307 558.278 138.386 557.881C138.466 557.483 138.545 557.038 138.625 556.545C138.708 556.057 138.777 555.557 138.83 555.045L138.898 554.409H140.352ZM150.882 556.182C150.094 556.182 149.403 555.994 148.808 555.619C148.217 555.244 147.755 554.72 147.422 554.045C147.092 553.371 146.928 552.583 146.928 551.682C146.928 550.773 147.092 549.979 147.422 549.301C147.755 548.623 148.217 548.097 148.808 547.722C149.403 547.347 150.094 547.159 150.882 547.159C151.67 547.159 152.359 547.347 152.95 547.722C153.545 548.097 154.007 548.623 154.337 549.301C154.67 549.979 154.837 550.773 154.837 551.682C154.837 552.583 154.67 553.371 154.337 554.045C154.007 554.72 153.545 555.244 152.95 555.619C152.359 555.994 151.67 556.182 150.882 556.182ZM150.882 554.977C151.481 554.977 151.973 554.824 152.359 554.517C152.746 554.21 153.032 553.807 153.217 553.307C153.403 552.807 153.496 552.265 153.496 551.682C153.496 551.098 153.403 550.555 153.217 550.051C153.032 549.547 152.746 549.14 152.359 548.83C151.973 548.519 151.481 548.364 150.882 548.364C150.284 548.364 149.791 548.519 149.405 548.83C149.018 549.14 148.732 549.547 148.547 550.051C148.361 550.555 148.268 551.098 148.268 551.682C148.268 552.265 148.361 552.807 148.547 553.307C148.732 553.807 149.018 554.21 149.405 554.517C149.791 554.824 150.284 554.977 150.882 554.977ZM163.361 544L164.043 544.818C163.777 545.076 163.471 545.256 163.122 545.358C162.774 545.46 162.38 545.523 161.94 545.545C161.501 545.568 161.012 545.591 160.474 545.614C159.868 545.636 159.366 545.784 158.969 546.057C158.571 546.33 158.264 546.723 158.048 547.239C157.832 547.754 157.694 548.386 157.634 549.136H157.747C158.043 548.591 158.452 548.189 158.974 547.932C159.497 547.674 160.058 547.545 160.656 547.545C161.338 547.545 161.952 547.705 162.497 548.023C163.043 548.341 163.474 548.812 163.793 549.438C164.111 550.062 164.27 550.833 164.27 551.75C164.27 552.663 164.107 553.451 163.781 554.114C163.459 554.777 163.007 555.288 162.423 555.648C161.844 556.004 161.164 556.182 160.384 556.182C159.603 556.182 158.92 555.998 158.332 555.631C157.745 555.259 157.289 554.71 156.963 553.983C156.637 553.252 156.474 552.348 156.474 551.273V550.341C156.474 548.398 156.804 546.924 157.463 545.92C158.126 544.917 159.122 544.398 160.452 544.364C160.921 544.348 161.34 544.345 161.707 544.352C162.075 544.36 162.395 544.343 162.668 544.301C162.94 544.259 163.171 544.159 163.361 544ZM160.384 554.977C160.91 554.977 161.363 554.845 161.741 554.58C162.124 554.314 162.418 553.941 162.622 553.46C162.827 552.975 162.929 552.405 162.929 551.75C162.929 551.114 162.825 550.572 162.616 550.125C162.412 549.678 162.118 549.337 161.736 549.102C161.353 548.867 160.895 548.75 160.361 548.75C159.971 548.75 159.62 548.816 159.31 548.949C158.999 549.081 158.734 549.277 158.514 549.534C158.295 549.792 158.124 550.106 158.003 550.477C157.885 550.848 157.823 551.273 157.815 551.75C157.815 552.727 158.045 553.509 158.503 554.097C158.961 554.684 159.588 554.977 160.384 554.977ZM178.23 554.75L178.071 558.5H176.685V556H175.548V554.75H178.23ZM166.321 547.273H167.662V554.75H170.957V547.273H172.298V554.75H175.594V547.273H176.935V556H166.321V547.273ZM182.749 556.205C182.196 556.205 181.694 556.1 181.243 555.892C180.792 555.68 180.434 555.375 180.169 554.977C179.904 554.576 179.771 554.091 179.771 553.523C179.771 553.023 179.87 552.617 180.067 552.307C180.264 551.992 180.527 551.746 180.857 551.568C181.186 551.39 181.55 551.258 181.947 551.17C182.349 551.08 182.752 551.008 183.158 550.955C183.688 550.886 184.118 550.835 184.447 550.801C184.781 550.763 185.023 550.701 185.175 550.614C185.33 550.527 185.408 550.375 185.408 550.159V550.114C185.408 549.553 185.254 549.117 184.947 548.807C184.644 548.496 184.184 548.341 183.567 548.341C182.927 548.341 182.425 548.481 182.061 548.761C181.697 549.042 181.442 549.341 181.294 549.659L180.021 549.205C180.249 548.674 180.552 548.261 180.93 547.966C181.313 547.667 181.73 547.458 182.18 547.341C182.635 547.22 183.082 547.159 183.521 547.159C183.802 547.159 184.124 547.193 184.487 547.261C184.855 547.326 185.209 547.46 185.55 547.665C185.894 547.869 186.18 548.178 186.408 548.591C186.635 549.004 186.749 549.557 186.749 550.25V556H185.408V554.818H185.339C185.249 555.008 185.097 555.21 184.885 555.426C184.673 555.642 184.391 555.826 184.038 555.977C183.686 556.129 183.256 556.205 182.749 556.205ZM182.953 555C183.483 555 183.93 554.896 184.294 554.688C184.661 554.479 184.938 554.21 185.124 553.881C185.313 553.551 185.408 553.205 185.408 552.841V551.614C185.351 551.682 185.226 551.744 185.033 551.801C184.843 551.854 184.624 551.902 184.374 551.943C184.127 551.981 183.887 552.015 183.652 552.045C183.421 552.072 183.233 552.095 183.089 552.114C182.741 552.159 182.415 552.233 182.112 552.335C181.813 552.434 181.571 552.583 181.385 552.784C181.203 552.981 181.112 553.25 181.112 553.591C181.112 554.057 181.285 554.409 181.629 554.648C181.978 554.883 182.419 555 182.953 555ZM190.537 554.023L194.741 547.273H196.287V556H194.946V549.25L190.764 556H189.196V547.273H190.537V554.023ZM193.855 544.364H195.105C195.105 544.977 194.893 545.479 194.469 545.869C194.045 546.259 193.469 546.455 192.741 546.455C192.026 546.455 191.455 546.259 191.031 545.869C190.611 545.479 190.401 544.977 190.401 544.364H191.651C191.651 544.659 191.732 544.919 191.895 545.142C192.062 545.366 192.344 545.477 192.741 545.477C193.139 545.477 193.423 545.366 193.594 545.142C193.768 544.919 193.855 544.659 193.855 544.364ZM202.288 556.182C201.47 556.182 200.766 555.989 200.175 555.602C199.584 555.216 199.129 554.684 198.811 554.006C198.493 553.328 198.334 552.553 198.334 551.682C198.334 550.795 198.497 550.013 198.822 549.335C199.152 548.653 199.61 548.121 200.197 547.739C200.788 547.352 201.478 547.159 202.266 547.159C202.879 547.159 203.432 547.273 203.925 547.5C204.417 547.727 204.821 548.045 205.135 548.455C205.449 548.864 205.644 549.341 205.72 549.886H204.379C204.277 549.489 204.05 549.136 203.697 548.83C203.349 548.519 202.879 548.364 202.288 548.364C201.766 548.364 201.307 548.5 200.913 548.773C200.523 549.042 200.218 549.422 199.999 549.915C199.783 550.403 199.675 550.977 199.675 551.636C199.675 552.311 199.781 552.898 199.993 553.398C200.209 553.898 200.512 554.286 200.902 554.562C201.296 554.839 201.758 554.977 202.288 554.977C202.637 554.977 202.953 554.917 203.237 554.795C203.521 554.674 203.762 554.5 203.959 554.273C204.156 554.045 204.296 553.773 204.379 553.455H205.72C205.644 553.97 205.457 554.434 205.158 554.847C204.862 555.256 204.47 555.581 203.982 555.824C203.497 556.062 202.932 556.182 202.288 556.182ZM212.93 556V548.5H210.612C210.089 548.5 209.679 548.621 209.379 548.864C209.08 549.106 208.93 549.439 208.93 549.864C208.93 550.28 209.065 550.608 209.334 550.847C209.607 551.085 209.98 551.205 210.453 551.205H213.271V552.455H210.453C209.862 552.455 209.353 552.35 208.925 552.142C208.497 551.934 208.167 551.636 207.936 551.25C207.705 550.86 207.589 550.398 207.589 549.864C207.589 549.326 207.711 548.864 207.953 548.477C208.196 548.091 208.542 547.794 208.993 547.585C209.447 547.377 209.987 547.273 210.612 547.273H214.203V556H212.93ZM207.112 556L209.589 551.659H211.044L208.567 556H207.112ZM218.665 554.409L218.574 555.023C218.509 555.455 218.411 555.917 218.278 556.409C218.15 556.902 218.015 557.366 217.875 557.801C217.735 558.237 217.619 558.583 217.528 558.841H216.506C216.555 558.598 216.619 558.278 216.699 557.881C216.778 557.483 216.858 557.038 216.938 556.545C217.021 556.057 217.089 555.557 217.142 555.045L217.21 554.409H218.665ZM225.649 556V547.273H232.513V556H231.172V548.523H226.99V556H225.649ZM238.507 556.182C237.719 556.182 237.028 555.994 236.433 555.619C235.842 555.244 235.38 554.72 235.047 554.045C234.717 553.371 234.553 552.583 234.553 551.682C234.553 550.773 234.717 549.979 235.047 549.301C235.38 548.623 235.842 548.097 236.433 547.722C237.028 547.347 237.719 547.159 238.507 547.159C239.295 547.159 239.984 547.347 240.575 547.722C241.17 548.097 241.632 548.623 241.962 549.301C242.295 549.979 242.462 550.773 242.462 551.682C242.462 552.583 242.295 553.371 241.962 554.045C241.632 554.72 241.17 555.244 240.575 555.619C239.984 555.994 239.295 556.182 238.507 556.182ZM238.507 554.977C239.106 554.977 239.598 554.824 239.984 554.517C240.371 554.21 240.657 553.807 240.842 553.307C241.028 552.807 241.121 552.265 241.121 551.682C241.121 551.098 241.028 550.555 240.842 550.051C240.657 549.547 240.371 549.14 239.984 548.83C239.598 548.519 239.106 548.364 238.507 548.364C237.909 548.364 237.416 548.519 237.03 548.83C236.643 549.14 236.357 549.547 236.172 550.051C235.986 550.555 235.893 551.098 235.893 551.682C235.893 552.265 235.986 552.807 236.172 553.307C236.357 553.807 236.643 554.21 237.03 554.517C237.416 554.824 237.909 554.977 238.507 554.977ZM250.986 544L251.668 544.818C251.402 545.076 251.096 545.256 250.747 545.358C250.399 545.46 250.005 545.523 249.565 545.545C249.126 545.568 248.637 545.591 248.099 545.614C247.493 545.636 246.991 545.784 246.594 546.057C246.196 546.33 245.889 546.723 245.673 547.239C245.457 547.754 245.319 548.386 245.259 549.136H245.372C245.668 548.591 246.077 548.189 246.599 547.932C247.122 547.674 247.683 547.545 248.281 547.545C248.963 547.545 249.577 547.705 250.122 548.023C250.668 548.341 251.099 548.812 251.418 549.438C251.736 550.062 251.895 550.833 251.895 551.75C251.895 552.663 251.732 553.451 251.406 554.114C251.084 554.777 250.632 555.288 250.048 555.648C249.469 556.004 248.789 556.182 248.009 556.182C247.228 556.182 246.545 555.998 245.957 555.631C245.37 555.259 244.914 554.71 244.588 553.983C244.262 553.252 244.099 552.348 244.099 551.273V550.341C244.099 548.398 244.429 546.924 245.088 545.92C245.751 544.917 246.747 544.398 248.077 544.364C248.546 544.348 248.965 544.345 249.332 544.352C249.7 544.36 250.02 544.343 250.293 544.301C250.565 544.259 250.796 544.159 250.986 544ZM248.009 554.977C248.535 554.977 248.988 554.845 249.366 554.58C249.749 554.314 250.043 553.941 250.247 553.46C250.452 552.975 250.554 552.405 250.554 551.75C250.554 551.114 250.45 550.572 250.241 550.125C250.037 549.678 249.743 549.337 249.361 549.102C248.978 548.867 248.52 548.75 247.986 548.75C247.596 548.75 247.245 548.816 246.935 548.949C246.624 549.081 246.359 549.277 246.139 549.534C245.92 549.792 245.749 550.106 245.628 550.477C245.51 550.848 245.448 551.273 245.44 551.75C245.44 552.727 245.67 553.509 246.128 554.097C246.586 554.684 247.213 554.977 248.009 554.977ZM257.605 556.182C256.764 556.182 256.039 555.996 255.429 555.625C254.823 555.25 254.355 554.727 254.026 554.057C253.7 553.383 253.537 552.598 253.537 551.705C253.537 550.811 253.7 550.023 254.026 549.341C254.355 548.655 254.813 548.121 255.401 547.739C255.991 547.352 256.681 547.159 257.469 547.159C257.923 547.159 258.372 547.235 258.815 547.386C259.259 547.538 259.662 547.784 260.026 548.125C260.389 548.462 260.679 548.909 260.895 549.466C261.111 550.023 261.219 550.708 261.219 551.523V552.091H254.491V550.932H259.855C259.855 550.439 259.757 550 259.56 549.614C259.366 549.227 259.09 548.922 258.73 548.699C258.374 548.475 257.954 548.364 257.469 548.364C256.935 548.364 256.473 548.496 256.082 548.761C255.696 549.023 255.399 549.364 255.19 549.784C254.982 550.205 254.878 550.655 254.878 551.136V551.909C254.878 552.568 254.991 553.127 255.219 553.585C255.45 554.04 255.77 554.386 256.179 554.625C256.588 554.86 257.063 554.977 257.605 554.977C257.957 554.977 258.276 554.928 258.56 554.83C258.848 554.727 259.096 554.576 259.304 554.375C259.512 554.17 259.673 553.917 259.787 553.614L261.082 553.977C260.946 554.417 260.717 554.803 260.395 555.136C260.073 555.466 259.675 555.723 259.202 555.909C258.728 556.091 258.196 556.182 257.605 556.182ZM262.479 556L266.024 551.568L262.524 547.273H264.115L267.024 551H267.751V547.273H269.092V551H269.797L272.706 547.273H274.297L270.82 551.568L274.342 556H272.729L269.774 552.25H269.092V556H267.751V552.25H267.07L264.092 556H262.479ZM275.327 558.5V554.75H276.054C276.232 554.564 276.385 554.364 276.514 554.148C276.643 553.932 276.755 553.676 276.849 553.381C276.948 553.081 277.031 552.718 277.099 552.29C277.168 551.858 277.228 551.337 277.281 550.727L277.577 547.273H283.122V554.75H284.463V558.5H283.122V556H276.668V558.5H275.327ZM277.577 554.75H281.781V548.523H278.827L278.599 550.727C278.505 551.64 278.387 552.437 278.247 553.119C278.107 553.801 277.884 554.345 277.577 554.75ZM288.811 556.205C288.258 556.205 287.756 556.1 287.305 555.892C286.855 555.68 286.497 555.375 286.232 554.977C285.966 554.576 285.834 554.091 285.834 553.523C285.834 553.023 285.932 552.617 286.129 552.307C286.326 551.992 286.589 551.746 286.919 551.568C287.249 551.39 287.612 551.258 288.01 551.17C288.411 551.08 288.815 551.008 289.22 550.955C289.75 550.886 290.18 550.835 290.51 550.801C290.843 550.763 291.086 550.701 291.237 550.614C291.393 550.527 291.47 550.375 291.47 550.159V550.114C291.47 549.553 291.317 549.117 291.01 548.807C290.707 548.496 290.247 548.341 289.629 548.341C288.989 548.341 288.487 548.481 288.124 548.761C287.76 549.042 287.504 549.341 287.357 549.659L286.084 549.205C286.311 548.674 286.614 548.261 286.993 547.966C287.375 547.667 287.792 547.458 288.243 547.341C288.697 547.22 289.144 547.159 289.584 547.159C289.864 547.159 290.186 547.193 290.55 547.261C290.917 547.326 291.271 547.46 291.612 547.665C291.957 547.869 292.243 548.178 292.47 548.591C292.697 549.004 292.811 549.557 292.811 550.25V556H291.47V554.818H291.402C291.311 555.008 291.16 555.21 290.947 555.426C290.735 555.642 290.453 555.826 290.101 555.977C289.749 556.129 289.319 556.205 288.811 556.205ZM289.016 555C289.546 555 289.993 554.896 290.357 554.688C290.724 554.479 291 554.21 291.186 553.881C291.375 553.551 291.47 553.205 291.47 552.841V551.614C291.413 551.682 291.288 551.744 291.095 551.801C290.906 551.854 290.686 551.902 290.436 551.943C290.19 551.981 289.949 552.015 289.714 552.045C289.483 552.072 289.296 552.095 289.152 552.114C288.804 552.159 288.478 552.233 288.175 552.335C287.875 552.434 287.633 552.583 287.447 552.784C287.266 552.981 287.175 553.25 287.175 553.591C287.175 554.057 287.347 554.409 287.692 554.648C288.04 554.883 288.482 555 289.016 555ZM296.599 554.023L300.804 547.273H302.349V556H301.009V549.25L296.827 556H295.259V547.273H296.599V554.023ZM299.918 544.364H301.168C301.168 544.977 300.955 545.479 300.531 545.869C300.107 546.259 299.531 546.455 298.804 546.455C298.088 546.455 297.518 546.259 297.094 545.869C296.673 545.479 296.463 544.977 296.463 544.364H297.713C297.713 544.659 297.795 544.919 297.957 545.142C298.124 545.366 298.406 545.477 298.804 545.477C299.202 545.477 299.486 545.366 299.656 545.142C299.83 544.919 299.918 544.659 299.918 544.364Z" fill="#979797"/>
<path d="M90.831 544.364H92.2173V553.523H92.331L98.6946 544.364H100.058V556H98.6491V546.864H98.5355L92.1946 556H90.831V544.364ZM108.082 547.273V548.523H104.037V556H102.696V547.273H108.082ZM110.04 559.273V547.273H111.335V548.659H111.494C111.593 548.508 111.729 548.314 111.903 548.08C112.081 547.841 112.335 547.629 112.665 547.443C112.998 547.254 113.449 547.159 114.017 547.159C114.752 547.159 115.4 547.343 115.96 547.71C116.521 548.078 116.958 548.598 117.273 549.273C117.587 549.947 117.744 550.742 117.744 551.659C117.744 552.583 117.587 553.384 117.273 554.062C116.958 554.737 116.523 555.259 115.966 555.631C115.409 555.998 114.767 556.182 114.04 556.182C113.479 556.182 113.03 556.089 112.693 555.903C112.356 555.714 112.097 555.5 111.915 555.261C111.733 555.019 111.593 554.818 111.494 554.659H111.381V559.273H110.04ZM111.358 551.636C111.358 552.295 111.455 552.877 111.648 553.381C111.841 553.881 112.123 554.273 112.494 554.557C112.866 554.837 113.32 554.977 113.858 554.977C114.419 554.977 114.886 554.83 115.261 554.534C115.64 554.235 115.924 553.833 116.114 553.33C116.307 552.822 116.403 552.258 116.403 551.636C116.403 551.023 116.309 550.47 116.119 549.977C115.934 549.481 115.652 549.089 115.273 548.801C114.898 548.509 114.426 548.364 113.858 548.364C113.313 548.364 112.854 548.502 112.483 548.778C112.112 549.051 111.831 549.434 111.642 549.926C111.453 550.415 111.358 550.985 111.358 551.636ZM122.358 556.205C121.805 556.205 121.303 556.1 120.852 555.892C120.402 555.68 120.044 555.375 119.778 554.977C119.513 554.576 119.381 554.091 119.381 553.523C119.381 553.023 119.479 552.617 119.676 552.307C119.873 551.992 120.136 551.746 120.466 551.568C120.795 551.39 121.159 551.258 121.557 551.17C121.958 551.08 122.362 551.008 122.767 550.955C123.297 550.886 123.727 550.835 124.057 550.801C124.39 550.763 124.633 550.701 124.784 550.614C124.939 550.527 125.017 550.375 125.017 550.159V550.114C125.017 549.553 124.864 549.117 124.557 548.807C124.254 548.496 123.794 548.341 123.176 548.341C122.536 548.341 122.034 548.481 121.67 548.761C121.307 549.042 121.051 549.341 120.903 549.659L119.631 549.205C119.858 548.674 120.161 548.261 120.54 547.966C120.922 547.667 121.339 547.458 121.79 547.341C122.244 547.22 122.691 547.159 123.131 547.159C123.411 547.159 123.733 547.193 124.097 547.261C124.464 547.326 124.818 547.46 125.159 547.665C125.504 547.869 125.79 548.178 126.017 548.591C126.244 549.004 126.358 549.557 126.358 550.25V556H125.017V554.818H124.949C124.858 555.008 124.706 555.21 124.494 555.426C124.282 555.642 124 555.826 123.648 555.977C123.295 556.129 122.866 556.205 122.358 556.205ZM122.562 555C123.093 555 123.54 554.896 123.903 554.688C124.271 554.479 124.547 554.21 124.733 553.881C124.922 553.551 125.017 553.205 125.017 552.841V551.614C124.96 551.682 124.835 551.744 124.642 551.801C124.453 551.854 124.233 551.902 123.983 551.943C123.737 551.981 123.496 552.015 123.261 552.045C123.03 552.072 122.843 552.095 122.699 552.114C122.35 552.159 122.025 552.233 121.722 552.335C121.422 552.434 121.18 552.583 120.994 552.784C120.813 552.981 120.722 553.25 120.722 553.591C120.722 554.057 120.894 554.409 121.239 554.648C121.587 554.883 122.028 555 122.562 555ZM130.146 554.023L134.351 547.273H135.896V556H134.555V549.25L130.374 556H128.805V547.273H130.146V554.023ZM133.464 544.364H134.714C134.714 544.977 134.502 545.479 134.078 545.869C133.654 546.259 133.078 546.455 132.351 546.455C131.635 546.455 131.065 546.259 130.641 545.869C130.22 545.479 130.01 544.977 130.01 544.364H131.26C131.26 544.659 131.341 544.919 131.504 545.142C131.671 545.366 131.953 545.477 132.351 545.477C132.749 545.477 133.033 545.366 133.203 545.142C133.377 544.919 133.464 544.659 133.464 544.364ZM140.352 554.409L140.261 555.023C140.197 555.455 140.098 555.917 139.966 556.409C139.837 556.902 139.703 557.366 139.562 557.801C139.422 558.237 139.307 558.583 139.216 558.841H138.193C138.242 558.598 138.307 558.278 138.386 557.881C138.466 557.483 138.545 557.038 138.625 556.545C138.708 556.057 138.777 555.557 138.83 555.045L138.898 554.409H140.352ZM150.882 556.182C150.094 556.182 149.403 555.994 148.808 555.619C148.217 555.244 147.755 554.72 147.422 554.045C147.092 553.371 146.928 552.583 146.928 551.682C146.928 550.773 147.092 549.979 147.422 549.301C147.755 548.623 148.217 548.097 148.808 547.722C149.403 547.347 150.094 547.159 150.882 547.159C151.67 547.159 152.359 547.347 152.95 547.722C153.545 548.097 154.007 548.623 154.337 549.301C154.67 549.979 154.837 550.773 154.837 551.682C154.837 552.583 154.67 553.371 154.337 554.045C154.007 554.72 153.545 555.244 152.95 555.619C152.359 555.994 151.67 556.182 150.882 556.182ZM150.882 554.977C151.481 554.977 151.973 554.824 152.359 554.517C152.746 554.21 153.032 553.807 153.217 553.307C153.403 552.807 153.496 552.265 153.496 551.682C153.496 551.098 153.403 550.555 153.217 550.051C153.032 549.547 152.746 549.14 152.359 548.83C151.973 548.519 151.481 548.364 150.882 548.364C150.284 548.364 149.791 548.519 149.405 548.83C149.018 549.14 148.732 549.547 148.547 550.051C148.361 550.555 148.268 551.098 148.268 551.682C148.268 552.265 148.361 552.807 148.547 553.307C148.732 553.807 149.018 554.21 149.405 554.517C149.791 554.824 150.284 554.977 150.882 554.977ZM163.361 544L164.043 544.818C163.777 545.076 163.471 545.256 163.122 545.358C162.774 545.46 162.38 545.523 161.94 545.545C161.501 545.568 161.012 545.591 160.474 545.614C159.868 545.636 159.366 545.784 158.969 546.057C158.571 546.33 158.264 546.723 158.048 547.239C157.832 547.754 157.694 548.386 157.634 549.136H157.747C158.043 548.591 158.452 548.189 158.974 547.932C159.497 547.674 160.058 547.545 160.656 547.545C161.338 547.545 161.952 547.705 162.497 548.023C163.043 548.341 163.474 548.812 163.793 549.438C164.111 550.062 164.27 550.833 164.27 551.75C164.27 552.663 164.107 553.451 163.781 554.114C163.459 554.777 163.007 555.288 162.423 555.648C161.844 556.004 161.164 556.182 160.384 556.182C159.603 556.182 158.92 555.998 158.332 555.631C157.745 555.259 157.289 554.71 156.963 553.983C156.637 553.252 156.474 552.348 156.474 551.273V550.341C156.474 548.398 156.804 546.924 157.463 545.92C158.126 544.917 159.122 544.398 160.452 544.364C160.921 544.348 161.34 544.345 161.707 544.352C162.075 544.36 162.395 544.343 162.668 544.301C162.94 544.259 163.171 544.159 163.361 544ZM160.384 554.977C160.91 554.977 161.363 554.845 161.741 554.58C162.124 554.314 162.418 553.941 162.622 553.46C162.827 552.975 162.929 552.405 162.929 551.75C162.929 551.114 162.825 550.572 162.616 550.125C162.412 549.678 162.118 549.337 161.736 549.102C161.353 548.867 160.895 548.75 160.361 548.75C159.971 548.75 159.62 548.816 159.31 548.949C158.999 549.081 158.734 549.277 158.514 549.534C158.295 549.792 158.124 550.106 158.003 550.477C157.885 550.848 157.823 551.273 157.815 551.75C157.815 552.727 158.045 553.509 158.503 554.097C158.961 554.684 159.588 554.977 160.384 554.977ZM178.23 554.75L178.071 558.5H176.685V556H175.548V554.75H178.23ZM166.321 547.273H167.662V554.75H170.957V547.273H172.298V554.75H175.594V547.273H176.935V556H166.321V547.273ZM182.749 556.205C182.196 556.205 181.694 556.1 181.243 555.892C180.792 555.68 180.434 555.375 180.169 554.977C179.904 554.576 179.771 554.091 179.771 553.523C179.771 553.023 179.87 552.617 180.067 552.307C180.264 551.992 180.527 551.746 180.857 551.568C181.186 551.39 181.55 551.258 181.947 551.17C182.349 551.08 182.752 551.008 183.158 550.955C183.688 550.886 184.118 550.835 184.447 550.801C184.781 550.763 185.023 550.701 185.175 550.614C185.33 550.527 185.408 550.375 185.408 550.159V550.114C185.408 549.553 185.254 549.117 184.947 548.807C184.644 548.496 184.184 548.341 183.567 548.341C182.927 548.341 182.425 548.481 182.061 548.761C181.697 549.042 181.442 549.341 181.294 549.659L180.021 549.205C180.249 548.674 180.552 548.261 180.93 547.966C181.313 547.667 181.73 547.458 182.18 547.341C182.635 547.22 183.082 547.159 183.521 547.159C183.802 547.159 184.124 547.193 184.487 547.261C184.855 547.326 185.209 547.46 185.55 547.665C185.894 547.869 186.18 548.178 186.408 548.591C186.635 549.004 186.749 549.557 186.749 550.25V556H185.408V554.818H185.339C185.249 555.008 185.097 555.21 184.885 555.426C184.673 555.642 184.391 555.826 184.038 555.977C183.686 556.129 183.256 556.205 182.749 556.205ZM182.953 555C183.483 555 183.93 554.896 184.294 554.688C184.661 554.479 184.938 554.21 185.124 553.881C185.313 553.551 185.408 553.205 185.408 552.841V551.614C185.351 551.682 185.226 551.744 185.033 551.801C184.843 551.854 184.624 551.902 184.374 551.943C184.127 551.981 183.887 552.015 183.652 552.045C183.421 552.072 183.233 552.095 183.089 552.114C182.741 552.159 182.415 552.233 182.112 552.335C181.813 552.434 181.571 552.583 181.385 552.784C181.203 552.981 181.112 553.25 181.112 553.591C181.112 554.057 181.285 554.409 181.629 554.648C181.978 554.883 182.419 555 182.953 555ZM190.537 554.023L194.741 547.273H196.287V556H194.946V549.25L190.764 556H189.196V547.273H190.537V554.023ZM193.855 544.364H195.105C195.105 544.977 194.893 545.479 194.469 545.869C194.045 546.259 193.469 546.455 192.741 546.455C192.026 546.455 191.455 546.259 191.031 545.869C190.611 545.479 190.401 544.977 190.401 544.364H191.651C191.651 544.659 191.732 544.919 191.895 545.142C192.062 545.366 192.344 545.477 192.741 545.477C193.139 545.477 193.423 545.366 193.594 545.142C193.768 544.919 193.855 544.659 193.855 544.364ZM202.288 556.182C201.47 556.182 200.766 555.989 200.175 555.602C199.584 555.216 199.129 554.684 198.811 554.006C198.493 553.328 198.334 552.553 198.334 551.682C198.334 550.795 198.497 550.013 198.822 549.335C199.152 548.653 199.61 548.121 200.197 547.739C200.788 547.352 201.478 547.159 202.266 547.159C202.879 547.159 203.432 547.273 203.925 547.5C204.417 547.727 204.821 548.045 205.135 548.455C205.449 548.864 205.644 549.341 205.72 549.886H204.379C204.277 549.489 204.05 549.136 203.697 548.83C203.349 548.519 202.879 548.364 202.288 548.364C201.766 548.364 201.307 548.5 200.913 548.773C200.523 549.042 200.218 549.422 199.999 549.915C199.783 550.403 199.675 550.977 199.675 551.636C199.675 552.311 199.781 552.898 199.993 553.398C200.209 553.898 200.512 554.286 200.902 554.562C201.296 554.839 201.758 554.977 202.288 554.977C202.637 554.977 202.953 554.917 203.237 554.795C203.521 554.674 203.762 554.5 203.959 554.273C204.156 554.045 204.296 553.773 204.379 553.455H205.72C205.644 553.97 205.457 554.434 205.158 554.847C204.862 555.256 204.47 555.581 203.982 555.824C203.497 556.062 202.932 556.182 202.288 556.182ZM212.93 556V548.5H210.612C210.089 548.5 209.679 548.621 209.379 548.864C209.08 549.106 208.93 549.439 208.93 549.864C208.93 550.28 209.065 550.608 209.334 550.847C209.607 551.085 209.98 551.205 210.453 551.205H213.271V552.455H210.453C209.862 552.455 209.353 552.35 208.925 552.142C208.497 551.934 208.167 551.636 207.936 551.25C207.705 550.86 207.589 550.398 207.589 549.864C207.589 549.326 207.711 548.864 207.953 548.477C208.196 548.091 208.542 547.794 208.993 547.585C209.447 547.377 209.987 547.273 210.612 547.273H214.203V556H212.93ZM207.112 556L209.589 551.659H211.044L208.567 556H207.112ZM218.665 554.409L218.574 555.023C218.509 555.455 218.411 555.917 218.278 556.409C218.15 556.902 218.015 557.366 217.875 557.801C217.735 558.237 217.619 558.583 217.528 558.841H216.506C216.555 558.598 216.619 558.278 216.699 557.881C216.778 557.483 216.858 557.038 216.938 556.545C217.021 556.057 217.089 555.557 217.142 555.045L217.21 554.409H218.665ZM225.649 556V547.273H232.513V556H231.172V548.523H226.99V556H225.649ZM238.507 556.182C237.719 556.182 237.028 555.994 236.433 555.619C235.842 555.244 235.38 554.72 235.047 554.045C234.717 553.371 234.553 552.583 234.553 551.682C234.553 550.773 234.717 549.979 235.047 549.301C235.38 548.623 235.842 548.097 236.433 547.722C237.028 547.347 237.719 547.159 238.507 547.159C239.295 547.159 239.984 547.347 240.575 547.722C241.17 548.097 241.632 548.623 241.962 549.301C242.295 549.979 242.462 550.773 242.462 551.682C242.462 552.583 242.295 553.371 241.962 554.045C241.632 554.72 241.17 555.244 240.575 555.619C239.984 555.994 239.295 556.182 238.507 556.182ZM238.507 554.977C239.106 554.977 239.598 554.824 239.984 554.517C240.371 554.21 240.657 553.807 240.842 553.307C241.028 552.807 241.121 552.265 241.121 551.682C241.121 551.098 241.028 550.555 240.842 550.051C240.657 549.547 240.371 549.14 239.984 548.83C239.598 548.519 239.106 548.364 238.507 548.364C237.909 548.364 237.416 548.519 237.03 548.83C236.643 549.14 236.357 549.547 236.172 550.051C235.986 550.555 235.893 551.098 235.893 551.682C235.893 552.265 235.986 552.807 236.172 553.307C236.357 553.807 236.643 554.21 237.03 554.517C237.416 554.824 237.909 554.977 238.507 554.977ZM250.986 544L251.668 544.818C251.402 545.076 251.096 545.256 250.747 545.358C250.399 545.46 250.005 545.523 249.565 545.545C249.126 545.568 248.637 545.591 248.099 545.614C247.493 545.636 246.991 545.784 246.594 546.057C246.196 546.33 245.889 546.723 245.673 547.239C245.457 547.754 245.319 548.386 245.259 549.136H245.372C245.668 548.591 246.077 548.189 246.599 547.932C247.122 547.674 247.683 547.545 248.281 547.545C248.963 547.545 249.577 547.705 250.122 548.023C250.668 548.341 251.099 548.812 251.418 549.438C251.736 550.062 251.895 550.833 251.895 551.75C251.895 552.663 251.732 553.451 251.406 554.114C251.084 554.777 250.632 555.288 250.048 555.648C249.469 556.004 248.789 556.182 248.009 556.182C247.228 556.182 246.545 555.998 245.957 555.631C245.37 555.259 244.914 554.71 244.588 553.983C244.262 553.252 244.099 552.348 244.099 551.273V550.341C244.099 548.398 244.429 546.924 245.088 545.92C245.751 544.917 246.747 544.398 248.077 544.364C248.546 544.348 248.965 544.345 249.332 544.352C249.7 544.36 250.02 544.343 250.293 544.301C250.565 544.259 250.796 544.159 250.986 544ZM248.009 554.977C248.535 554.977 248.988 554.845 249.366 554.58C249.749 554.314 250.043 553.941 250.247 553.46C250.452 552.975 250.554 552.405 250.554 551.75C250.554 551.114 250.45 550.572 250.241 550.125C250.037 549.678 249.743 549.337 249.361 549.102C248.978 548.867 248.52 548.75 247.986 548.75C247.596 548.75 247.245 548.816 246.935 548.949C246.624 549.081 246.359 549.277 246.139 549.534C245.92 549.792 245.749 550.106 245.628 550.477C245.51 550.848 245.448 551.273 245.44 551.75C245.44 552.727 245.67 553.509 246.128 554.097C246.586 554.684 247.213 554.977 248.009 554.977ZM257.605 556.182C256.764 556.182 256.039 555.996 255.429 555.625C254.823 555.25 254.355 554.727 254.026 554.057C253.7 553.383 253.537 552.598 253.537 551.705C253.537 550.811 253.7 550.023 254.026 549.341C254.355 548.655 254.813 548.121 255.401 547.739C255.991 547.352 256.681 547.159 257.469 547.159C257.923 547.159 258.372 547.235 258.815 547.386C259.259 547.538 259.662 547.784 260.026 548.125C260.389 548.462 260.679 548.909 260.895 549.466C261.111 550.023 261.219 550.708 261.219 551.523V552.091H254.491V550.932H259.855C259.855 550.439 259.757 550 259.56 549.614C259.366 549.227 259.09 548.922 258.73 548.699C258.374 548.475 257.954 548.364 257.469 548.364C256.935 548.364 256.473 548.496 256.082 548.761C255.696 549.023 255.399 549.364 255.19 549.784C254.982 550.205 254.878 550.655 254.878 551.136V551.909C254.878 552.568 254.991 553.127 255.219 553.585C255.45 554.04 255.77 554.386 256.179 554.625C256.588 554.86 257.063 554.977 257.605 554.977C257.957 554.977 258.276 554.928 258.56 554.83C258.848 554.727 259.096 554.576 259.304 554.375C259.512 554.17 259.673 553.917 259.787 553.614L261.082 553.977C260.946 554.417 260.717 554.803 260.395 555.136C260.073 555.466 259.675 555.723 259.202 555.909C258.728 556.091 258.196 556.182 257.605 556.182ZM262.479 556L266.024 551.568L262.524 547.273H264.115L267.024 551H267.751V547.273H269.092V551H269.797L272.706 547.273H274.297L270.82 551.568L274.342 556H272.729L269.774 552.25H269.092V556H267.751V552.25H267.07L264.092 556H262.479ZM275.327 558.5V554.75H276.054C276.232 554.564 276.385 554.364 276.514 554.148C276.643 553.932 276.755 553.676 276.849 553.381C276.948 553.081 277.031 552.718 277.099 552.29C277.168 551.858 277.228 551.337 277.281 550.727L277.577 547.273H283.122V554.75H284.463V558.5H283.122V556H276.668V558.5H275.327ZM277.577 554.75H281.781V548.523H278.827L278.599 550.727C278.505 551.64 278.387 552.437 278.247 553.119C278.107 553.801 277.884 554.345 277.577 554.75ZM288.811 556.205C288.258 556.205 287.756 556.1 287.305 555.892C286.855 555.68 286.497 555.375 286.232 554.977C285.966 554.576 285.834 554.091 285.834 553.523C285.834 553.023 285.932 552.617 286.129 552.307C286.326 551.992 286.589 551.746 286.919 551.568C287.249 551.39 287.612 551.258 288.01 551.17C288.411 551.08 288.815 551.008 289.22 550.955C289.75 550.886 290.18 550.835 290.51 550.801C290.843 550.763 291.086 550.701 291.237 550.614C291.393 550.527 291.47 550.375 291.47 550.159V550.114C291.47 549.553 291.317 549.117 291.01 548.807C290.707 548.496 290.247 548.341 289.629 548.341C288.989 548.341 288.487 548.481 288.124 548.761C287.76 549.042 287.504 549.341 287.357 549.659L286.084 549.205C286.311 548.674 286.614 548.261 286.993 547.966C287.375 547.667 287.792 547.458 288.243 547.341C288.697 547.22 289.144 547.159 289.584 547.159C289.864 547.159 290.186 547.193 290.55 547.261C290.917 547.326 291.271 547.46 291.612 547.665C291.957 547.869 292.243 548.178 292.47 548.591C292.697 549.004 292.811 549.557 292.811 550.25V556H291.47V554.818H291.402C291.311 555.008 291.16 555.21 290.947 555.426C290.735 555.642 290.453 555.826 290.101 555.977C289.749 556.129 289.319 556.205 288.811 556.205ZM289.016 555C289.546 555 289.993 554.896 290.357 554.688C290.724 554.479 291 554.21 291.186 553.881C291.375 553.551 291.47 553.205 291.47 552.841V551.614C291.413 551.682 291.288 551.744 291.095 551.801C290.906 551.854 290.686 551.902 290.436 551.943C290.19 551.981 289.949 552.015 289.714 552.045C289.483 552.072 289.296 552.095 289.152 552.114C288.804 552.159 288.478 552.233 288.175 552.335C287.875 552.434 287.633 552.583 287.447 552.784C287.266 552.981 287.175 553.25 287.175 553.591C287.175 554.057 287.347 554.409 287.692 554.648C288.04 554.883 288.482 555 289.016 555ZM296.599 554.023L300.804 547.273H302.349V556H301.009V549.25L296.827 556H295.259V547.273H296.599V554.023ZM299.918 544.364H301.168C301.168 544.977 300.955 545.479 300.531 545.869C300.107 546.259 299.531 546.455 298.804 546.455C298.088 546.455 297.518 546.259 297.094 545.869C296.673 545.479 296.463 544.977 296.463 544.364H297.713C297.713 544.659 297.795 544.919 297.957 545.142C298.124 545.366 298.406 545.477 298.804 545.477C299.202 545.477 299.486 545.366 299.656 545.142C299.83 544.919 299.918 544.659 299.918 544.364Z" fill="#979797"/>
</svg>
