<svg width="353" height="54" viewBox="0 0 353 54" fill="none" xmlns="http://www.w3.org/2000/svg">
<rect x="0.5" y="0.5" width="352" height="53" rx="26.5" fill="white"/>
<rect x="0.5" y="0.5" width="352" height="53" rx="26.5" stroke="#D8DADC"/>
<path d="M53.464 31.896L54.136 30.376C54.616 30.7067 55.1387 30.9627 55.704 31.144C56.28 31.3147 56.8507 31.4053 57.416 31.416C57.9813 31.4267 58.4933 31.3627 58.952 31.224C59.4213 31.0853 59.7947 30.8773 60.072 30.6C60.3493 30.3227 60.488 29.976 60.488 29.56C60.488 29.0587 60.28 28.6853 59.864 28.44C59.4587 28.184 58.904 28.056 58.2 28.056H55.592V26.424H58.04C58.6693 26.424 59.1547 26.296 59.496 26.04C59.848 25.784 60.024 25.4373 60.024 25C60.024 24.6373 59.9067 24.3387 59.672 24.104C59.448 23.8693 59.1387 23.6933 58.744 23.576C58.36 23.4587 57.9227 23.4053 57.432 23.416C56.952 23.416 56.4507 23.4907 55.928 23.64C55.4053 23.7787 54.9093 23.9867 54.44 24.264L53.784 22.584C54.488 22.2107 55.224 21.9493 55.992 21.8C56.7707 21.6507 57.5227 21.608 58.248 21.672C58.9733 21.736 59.624 21.9013 60.2 22.168C60.7867 22.4347 61.256 22.7867 61.608 23.224C61.96 23.6507 62.136 24.1573 62.136 24.744C62.136 25.2773 61.992 25.752 61.704 26.168C61.4267 26.5733 61.0427 26.888 60.552 27.112C60.0613 27.336 59.4907 27.448 58.84 27.448L58.92 26.936C59.656 26.936 60.296 27.064 60.84 27.32C61.3947 27.5653 61.8213 27.9067 62.12 28.344C62.4293 28.7813 62.584 29.288 62.584 29.864C62.584 30.408 62.4453 30.8933 62.168 31.32C61.8907 31.736 61.512 32.088 61.032 32.376C60.552 32.6533 60.0027 32.8613 59.384 33C58.7653 33.128 58.1147 33.176 57.432 33.144C56.7493 33.112 56.0667 32.9947 55.384 32.792C54.712 32.5893 54.072 32.2907 53.464 31.896ZM69.9186 33V31.272L69.8066 30.904V27.88C69.8066 27.2933 69.6306 26.84 69.2786 26.52C68.9266 26.1893 68.3933 26.024 67.6786 26.024C67.1986 26.024 66.724 26.0987 66.2546 26.248C65.796 26.3973 65.4066 26.6053 65.0866 26.872L64.3026 25.416C64.7613 25.064 65.3053 24.8027 65.9346 24.632C66.5746 24.4507 67.236 24.36 67.9186 24.36C69.156 24.36 70.1106 24.6587 70.7826 25.256C71.4653 25.8427 71.8066 26.7547 71.8066 27.992V33H69.9186ZM67.2306 33.112C66.5906 33.112 66.0306 33.0053 65.5506 32.792C65.0706 32.568 64.6973 32.264 64.4306 31.88C64.1746 31.4853 64.0466 31.0427 64.0466 30.552C64.0466 30.072 64.1586 29.64 64.3826 29.256C64.6173 28.872 64.996 28.568 65.5186 28.344C66.0413 28.12 66.7346 28.008 67.5986 28.008H70.0786V29.336H67.7426C67.06 29.336 66.6013 29.448 66.3666 29.672C66.132 29.8853 66.0146 30.152 66.0146 30.472C66.0146 30.8347 66.1586 31.1227 66.4466 31.336C66.7346 31.5493 67.1346 31.656 67.6466 31.656C68.1373 31.656 68.5746 31.544 68.9586 31.32C69.3533 31.096 69.636 30.7653 69.8066 30.328L70.1426 31.528C69.9506 32.0293 69.604 32.4187 69.1026 32.696C68.612 32.9733 67.988 33.112 67.2306 33.112ZM79.0175 33.112C78.3242 33.112 77.6895 32.952 77.1135 32.632C76.5482 32.312 76.0948 31.832 75.7535 31.192C75.4228 30.5413 75.2575 29.72 75.2575 28.728C75.2575 27.7253 75.4175 26.904 75.7375 26.264C76.0682 25.624 76.5162 25.1493 77.0815 24.84C77.6468 24.52 78.2922 24.36 79.0175 24.36C79.8602 24.36 80.6015 24.5413 81.2415 24.904C81.8922 25.2667 82.4042 25.7733 82.7775 26.424C83.1615 27.0747 83.3535 27.8427 83.3535 28.728C83.3535 29.6133 83.1615 30.3867 82.7775 31.048C82.4042 31.6987 81.8922 32.2053 81.2415 32.568C80.6015 32.9307 79.8602 33.112 79.0175 33.112ZM74.2815 36.104V24.456H76.1855V26.472L76.1215 28.744L76.2815 31.016V36.104H74.2815ZM78.7935 31.4C79.2735 31.4 79.7002 31.2933 80.0735 31.08C80.4575 30.8667 80.7615 30.5573 80.9855 30.152C81.2095 29.7467 81.3215 29.272 81.3215 28.728C81.3215 28.1733 81.2095 27.6987 80.9855 27.304C80.7615 26.8987 80.4575 26.5893 80.0735 26.376C79.7002 26.1627 79.2735 26.056 78.7935 26.056C78.3135 26.056 77.8815 26.1627 77.4975 26.376C77.1135 26.5893 76.8095 26.8987 76.5855 27.304C76.3615 27.6987 76.2495 28.1733 76.2495 28.728C76.2495 29.272 76.3615 29.7467 76.5855 30.152C76.8095 30.5573 77.1135 30.8667 77.4975 31.08C77.8815 31.2933 78.3135 31.4 78.7935 31.4ZM89.328 33.112C88.3787 33.112 87.5467 32.9253 86.832 32.552C86.128 32.168 85.5787 31.6453 85.184 30.984C84.8 30.3227 84.608 29.5707 84.608 28.728C84.608 27.8747 84.7947 27.1227 85.168 26.472C85.552 25.8107 86.0747 25.2933 86.736 24.92C87.408 24.5467 88.1707 24.36 89.024 24.36C89.856 24.36 90.5973 24.5413 91.248 24.904C91.8987 25.2667 92.4107 25.7787 92.784 26.44C93.1573 27.1013 93.344 27.88 93.344 28.776C93.344 28.8613 93.3387 28.9573 93.328 29.064C93.328 29.1707 93.3227 29.272 93.312 29.368H86.192V28.04H92.256L91.472 28.456C91.4827 27.9653 91.3813 27.5333 91.168 27.16C90.9547 26.7867 90.6613 26.4933 90.288 26.28C89.9253 26.0667 89.504 25.96 89.024 25.96C88.5333 25.96 88.1013 26.0667 87.728 26.28C87.3653 26.4933 87.0773 26.792 86.864 27.176C86.6613 27.5493 86.56 27.992 86.56 28.504V28.824C86.56 29.336 86.6773 29.7893 86.912 30.184C87.1467 30.5787 87.4773 30.8827 87.904 31.096C88.3307 31.3093 88.8213 31.416 89.376 31.416C89.856 31.416 90.288 31.3413 90.672 31.192C91.056 31.0427 91.3973 30.808 91.696 30.488L92.768 31.72C92.384 32.168 91.8987 32.5147 91.312 32.76C90.736 32.9947 90.0747 33.112 89.328 33.112ZM95.5315 33V24.456H102.092V26.152H97.0675L97.5315 25.704V33H95.5315ZM103.547 33V24.456H105.547V30.088L110.267 24.456H112.091V33H110.091V27.368L105.387 33H103.547ZM118.67 33.112C117.774 33.112 116.974 32.9253 116.27 32.552C115.576 32.168 115.032 31.6453 114.638 30.984C114.243 30.3227 114.046 29.5707 114.046 28.728C114.046 27.8747 114.243 27.1227 114.638 26.472C115.032 25.8107 115.576 25.2933 116.27 24.92C116.974 24.5467 117.774 24.36 118.67 24.36C119.502 24.36 120.232 24.5307 120.862 24.872C121.502 25.2027 121.987 25.6933 122.318 26.344L120.782 27.24C120.526 26.8347 120.211 26.536 119.838 26.344C119.475 26.152 119.08 26.056 118.654 26.056C118.163 26.056 117.72 26.1627 117.326 26.376C116.931 26.5893 116.622 26.8987 116.398 27.304C116.174 27.6987 116.062 28.1733 116.062 28.728C116.062 29.2827 116.174 29.7627 116.398 30.168C116.622 30.5627 116.931 30.8667 117.326 31.08C117.72 31.2933 118.163 31.4 118.654 31.4C119.08 31.4 119.475 31.304 119.838 31.112C120.211 30.92 120.526 30.6213 120.782 30.216L122.318 31.112C121.987 31.752 121.502 32.248 120.862 32.6C120.232 32.9413 119.502 33.112 118.67 33.112ZM125.792 33V25.672L126.256 26.152H122.784V24.456H130.784V26.152H127.328L127.792 25.672V33H125.792ZM136.971 33.112C136.277 33.112 135.643 32.952 135.067 32.632C134.501 32.312 134.048 31.832 133.707 31.192C133.376 30.5413 133.211 29.72 133.211 28.728C133.211 27.7253 133.371 26.904 133.691 26.264C134.021 25.624 134.469 25.1493 135.035 24.84C135.6 24.52 136.245 24.36 136.971 24.36C137.813 24.36 138.555 24.5413 139.195 24.904C139.845 25.2667 140.357 25.7733 140.731 26.424C141.115 27.0747 141.307 27.8427 141.307 28.728C141.307 29.6133 141.115 30.3867 140.731 31.048C140.357 31.6987 139.845 32.2053 139.195 32.568C138.555 32.9307 137.813 33.112 136.971 33.112ZM132.235 36.104V24.456H134.139V26.472L134.075 28.744L134.235 31.016V36.104H132.235ZM136.747 31.4C137.227 31.4 137.653 31.2933 138.027 31.08C138.411 30.8667 138.715 30.5573 138.939 30.152C139.163 29.7467 139.275 29.272 139.275 28.728C139.275 28.1733 139.163 27.6987 138.939 27.304C138.715 26.8987 138.411 26.5893 138.027 26.376C137.653 26.1627 137.227 26.056 136.747 26.056C136.267 26.056 135.835 26.1627 135.451 26.376C135.067 26.5893 134.763 26.8987 134.539 27.304C134.315 27.6987 134.203 28.1733 134.203 28.728C134.203 29.272 134.315 29.7467 134.539 30.152C134.763 30.5573 135.067 30.8667 135.451 31.08C135.835 31.2933 136.267 31.4 136.747 31.4ZM143.297 33V24.456H145.297V30.088L150.017 24.456H151.841V33H149.841V27.368L145.137 33H143.297ZM159.268 33.112C158.574 33.112 157.94 32.952 157.364 32.632C156.798 32.312 156.345 31.832 156.004 31.192C155.673 30.5413 155.508 29.72 155.508 28.728C155.508 27.7253 155.668 26.904 155.988 26.264C156.318 25.624 156.766 25.1493 157.332 24.84C157.897 24.52 158.542 24.36 159.268 24.36C160.11 24.36 160.852 24.5413 161.492 24.904C162.142 25.2667 162.654 25.7733 163.028 26.424C163.412 27.0747 163.604 27.8427 163.604 28.728C163.604 29.6133 163.412 30.3867 163.028 31.048C162.654 31.6987 162.142 32.2053 161.492 32.568C160.852 32.9307 160.11 33.112 159.268 33.112ZM154.532 36.104V24.456H156.436V26.472L156.372 28.744L156.532 31.016V36.104H154.532ZM159.044 31.4C159.524 31.4 159.95 31.2933 160.324 31.08C160.708 30.8667 161.012 30.5573 161.236 30.152C161.46 29.7467 161.572 29.272 161.572 28.728C161.572 28.1733 161.46 27.6987 161.236 27.304C161.012 26.8987 160.708 26.5893 160.324 26.376C159.95 26.1627 159.524 26.056 159.044 26.056C158.564 26.056 158.132 26.1627 157.748 26.376C157.364 26.5893 157.06 26.8987 156.836 27.304C156.612 27.6987 156.5 28.1733 156.5 28.728C156.5 29.272 156.612 29.7467 156.836 30.152C157.06 30.5573 157.364 30.8667 157.748 31.08C158.132 31.2933 158.564 31.4 159.044 31.4ZM169.402 33.112C168.527 33.112 167.749 32.9253 167.066 32.552C166.383 32.168 165.845 31.6453 165.45 30.984C165.055 30.3227 164.858 29.5707 164.858 28.728C164.858 27.8747 165.055 27.1227 165.45 26.472C165.845 25.8107 166.383 25.2933 167.066 24.92C167.749 24.5467 168.527 24.36 169.402 24.36C170.287 24.36 171.071 24.5467 171.754 24.92C172.447 25.2933 172.986 25.8053 173.37 26.456C173.765 27.1067 173.962 27.864 173.962 28.728C173.962 29.5707 173.765 30.3227 173.37 30.984C172.986 31.6453 172.447 32.168 171.754 32.552C171.071 32.9253 170.287 33.112 169.402 33.112ZM169.402 31.4C169.893 31.4 170.33 31.2933 170.714 31.08C171.098 30.8667 171.397 30.5573 171.61 30.152C171.834 29.7467 171.946 29.272 171.946 28.728C171.946 28.1733 171.834 27.6987 171.61 27.304C171.397 26.8987 171.098 26.5893 170.714 26.376C170.33 26.1627 169.898 26.056 169.418 26.056C168.927 26.056 168.49 26.1627 168.106 26.376C167.733 26.5893 167.434 26.8987 167.21 27.304C166.986 27.6987 166.874 28.1733 166.874 28.728C166.874 29.272 166.986 29.7467 167.21 30.152C167.434 30.5573 167.733 30.8667 168.106 31.08C168.49 31.2933 168.922 31.4 169.402 31.4ZM175.938 33V24.456H180.114C181.148 24.456 181.959 24.648 182.546 25.032C183.143 25.416 183.442 25.96 183.442 26.664C183.442 27.3573 183.164 27.9013 182.61 28.296C182.055 28.68 181.319 28.872 180.402 28.872L180.642 28.376C181.676 28.376 182.444 28.568 182.946 28.952C183.458 29.3253 183.714 29.8747 183.714 30.6C183.714 31.3573 183.431 31.9493 182.866 32.376C182.3 32.792 181.442 33 180.29 33H175.938ZM177.842 31.544H180.13C180.674 31.544 181.084 31.4587 181.362 31.288C181.639 31.1067 181.778 30.8347 181.778 30.472C181.778 30.088 181.65 29.8053 181.394 29.624C181.138 29.4427 180.738 29.352 180.194 29.352H177.842V31.544ZM177.842 28.024H179.938C180.45 28.024 180.834 27.9333 181.09 27.752C181.356 27.56 181.49 27.2933 181.49 26.952C181.49 26.6 181.356 26.3387 181.09 26.168C180.834 25.9973 180.45 25.912 179.938 25.912H177.842V28.024ZM191.028 33V31.272L190.916 30.904V27.88C190.916 27.2933 190.74 26.84 190.388 26.52C190.036 26.1893 189.503 26.024 188.788 26.024C188.308 26.024 187.833 26.0987 187.364 26.248C186.905 26.3973 186.516 26.6053 186.196 26.872L185.412 25.416C185.871 25.064 186.415 24.8027 187.044 24.632C187.684 24.4507 188.345 24.36 189.028 24.36C190.265 24.36 191.22 24.6587 191.892 25.256C192.575 25.8427 192.916 26.7547 192.916 27.992V33H191.028ZM188.34 33.112C187.7 33.112 187.14 33.0053 186.66 32.792C186.18 32.568 185.807 32.264 185.54 31.88C185.284 31.4853 185.156 31.0427 185.156 30.552C185.156 30.072 185.268 29.64 185.492 29.256C185.727 28.872 186.105 28.568 186.628 28.344C187.151 28.12 187.844 28.008 188.708 28.008H191.188V29.336H188.852C188.169 29.336 187.711 29.448 187.476 29.672C187.241 29.8853 187.124 30.152 187.124 30.472C187.124 30.8347 187.268 31.1227 187.556 31.336C187.844 31.5493 188.244 31.656 188.756 31.656C189.247 31.656 189.684 31.544 190.068 31.32C190.463 31.096 190.745 30.7653 190.916 30.328L191.252 31.528C191.06 32.0293 190.713 32.4187 190.212 32.696C189.721 32.9733 189.097 33.112 188.34 33.112ZM197.167 33V25.672L197.631 26.152H194.159V24.456H202.159V26.152H198.703L199.167 25.672V33H197.167ZM207.898 27.272C208.996 27.272 209.834 27.5173 210.41 28.008C210.986 28.4987 211.274 29.192 211.274 30.088C211.274 31.016 210.954 31.7413 210.314 32.264C209.674 32.776 208.772 33.0267 207.61 33.016L203.61 33V24.456H205.61V27.256L207.898 27.272ZM207.434 31.544C208.02 31.5547 208.468 31.432 208.778 31.176C209.087 30.92 209.242 30.5467 209.242 30.056C209.242 29.5653 209.087 29.2133 208.778 29C208.479 28.776 208.031 28.6587 207.434 28.648L205.61 28.632V31.528L207.434 31.544ZM216.92 33.112C216.024 33.112 215.224 32.9253 214.52 32.552C213.826 32.168 213.282 31.6453 212.888 30.984C212.493 30.3227 212.296 29.5707 212.296 28.728C212.296 27.8747 212.493 27.1227 212.888 26.472C213.282 25.8107 213.826 25.2933 214.52 24.92C215.224 24.5467 216.024 24.36 216.92 24.36C217.752 24.36 218.482 24.5307 219.112 24.872C219.752 25.2027 220.237 25.6933 220.568 26.344L219.032 27.24C218.776 26.8347 218.461 26.536 218.088 26.344C217.725 26.152 217.33 26.056 216.904 26.056C216.413 26.056 215.97 26.1627 215.576 26.376C215.181 26.5893 214.872 26.8987 214.648 27.304C214.424 27.6987 214.312 28.1733 214.312 28.728C214.312 29.2827 214.424 29.7627 214.648 30.168C214.872 30.5627 215.181 30.8667 215.576 31.08C215.97 31.2933 216.413 31.4 216.904 31.4C217.33 31.4 217.725 31.304 218.088 31.112C218.461 30.92 218.776 30.6213 219.032 30.216L220.568 31.112C220.237 31.752 219.752 32.248 219.112 32.6C218.482 32.9413 217.752 33.112 216.92 33.112ZM227.518 33V30.088L227.806 30.424H225.246C224.073 30.424 223.15 30.1787 222.478 29.688C221.817 29.1867 221.486 28.4667 221.486 27.528C221.486 26.5253 221.838 25.7627 222.542 25.24C223.257 24.7173 224.206 24.456 225.39 24.456H229.31V33H227.518ZM221.374 33L223.678 29.736H225.726L223.518 33H221.374ZM227.518 29.448V25.608L227.806 26.136H225.454C224.835 26.136 224.355 26.2533 224.014 26.488C223.683 26.712 223.518 27.08 223.518 27.592C223.518 28.552 224.142 29.032 225.39 29.032H227.806L227.518 29.448ZM240.31 33.112C239.414 33.112 238.614 32.9253 237.91 32.552C237.217 32.168 236.673 31.6453 236.278 30.984C235.883 30.3227 235.686 29.5707 235.686 28.728C235.686 27.8747 235.883 27.1227 236.278 26.472C236.673 25.8107 237.217 25.2933 237.91 24.92C238.614 24.5467 239.414 24.36 240.31 24.36C241.142 24.36 241.873 24.5307 242.502 24.872C243.142 25.2027 243.627 25.6933 243.958 26.344L242.422 27.24C242.166 26.8347 241.851 26.536 241.478 26.344C241.115 26.152 240.721 26.056 240.294 26.056C239.803 26.056 239.361 26.1627 238.966 26.376C238.571 26.5893 238.262 26.8987 238.038 27.304C237.814 27.6987 237.702 28.1733 237.702 28.728C237.702 29.2827 237.814 29.7627 238.038 30.168C238.262 30.5627 238.571 30.8667 238.966 31.08C239.361 31.2933 239.803 31.4 240.294 31.4C240.721 31.4 241.115 31.304 241.478 31.112C241.851 30.92 242.166 30.6213 242.422 30.216L243.958 31.112C243.627 31.752 243.142 32.248 242.502 32.6C241.873 32.9413 241.142 33.112 240.31 33.112ZM252.221 26.456H257.789V28.168H252.221V26.456ZM252.381 31.256H258.701V33H250.301V21.8H258.477V23.544H252.381V31.256ZM271.612 24.36C272.294 24.36 272.897 24.4933 273.42 24.76C273.953 25.0267 274.369 25.4373 274.668 25.992C274.966 26.536 275.116 27.24 275.116 28.104V33H273.116V28.36C273.116 27.6027 272.95 27.0373 272.62 26.664C272.289 26.2907 271.814 26.104 271.196 26.104C270.758 26.104 270.369 26.2 270.028 26.392C269.697 26.584 269.436 26.8667 269.244 27.24C269.062 27.6133 268.972 28.088 268.972 28.664V33H266.972V28.36C266.972 27.6027 266.806 27.0373 266.476 26.664C266.145 26.2907 265.67 26.104 265.052 26.104C264.614 26.104 264.225 26.2 263.884 26.392C263.553 26.584 263.292 26.8667 263.1 27.24C262.918 27.6133 262.828 28.088 262.828 28.664V33H260.828V24.456H262.732V26.728L262.396 26.056C262.684 25.5013 263.1 25.08 263.644 24.792C264.198 24.504 264.828 24.36 265.532 24.36C266.332 24.36 267.025 24.5573 267.612 24.952C268.209 25.3467 268.604 25.944 268.796 26.744L268.012 26.472C268.289 25.832 268.748 25.32 269.388 24.936C270.028 24.552 270.769 24.36 271.612 24.36ZM282.935 33V31.272L282.823 30.904V27.88C282.823 27.2933 282.647 26.84 282.295 26.52C281.943 26.1893 281.41 26.024 280.695 26.024C280.215 26.024 279.741 26.0987 279.271 26.248C278.813 26.3973 278.423 26.6053 278.103 26.872L277.319 25.416C277.778 25.064 278.322 24.8027 278.951 24.632C279.591 24.4507 280.253 24.36 280.935 24.36C282.173 24.36 283.127 24.6587 283.799 25.256C284.482 25.8427 284.823 26.7547 284.823 27.992V33H282.935ZM280.247 33.112C279.607 33.112 279.047 33.0053 278.567 32.792C278.087 32.568 277.714 32.264 277.447 31.88C277.191 31.4853 277.063 31.0427 277.063 30.552C277.063 30.072 277.175 29.64 277.399 29.256C277.634 28.872 278.013 28.568 278.535 28.344C279.058 28.12 279.751 28.008 280.615 28.008H283.095V29.336H280.759C280.077 29.336 279.618 29.448 279.383 29.672C279.149 29.8853 279.031 30.152 279.031 30.472C279.031 30.8347 279.175 31.1227 279.463 31.336C279.751 31.5493 280.151 31.656 280.663 31.656C281.154 31.656 281.591 31.544 281.975 31.32C282.37 31.096 282.653 30.7653 282.823 30.328L283.159 31.528C282.967 32.0293 282.621 32.4187 282.119 32.696C281.629 32.9733 281.005 33.112 280.247 33.112ZM287.39 33V24.456H289.39V33H287.39ZM288.398 23.048C288.025 23.048 287.715 22.9307 287.47 22.696C287.235 22.4613 287.118 22.1787 287.118 21.848C287.118 21.5067 287.235 21.224 287.47 21C287.715 20.7653 288.025 20.648 288.398 20.648C288.771 20.648 289.075 20.76 289.31 20.984C289.555 21.1973 289.678 21.4693 289.678 21.8C289.678 22.152 289.561 22.4507 289.326 22.696C289.091 22.9307 288.782 23.048 288.398 23.048ZM292.015 33V21.128H294.015V33H292.015Z" fill="#1E1E1E"/>
<path fill-rule="evenodd" clip-rule="evenodd" d="M33.4451 20C34.652 20 35.813 20.4365 36.6671 21.2196C37.5221 22.0012 38 23.0553 38 24.1588V30.6647C38 32.9624 35.957 34.8235 33.4451 34.8235H24.554C22.0421 34.8235 20 32.9624 20 30.6647V24.1588C20 21.8612 22.0331 20 24.554 20H33.4451ZM34.8771 25.3859L34.9491 25.32C35.1642 25.0812 35.1642 24.7353 34.9392 24.4965C34.8141 24.3738 34.6422 24.2988 34.4631 24.2823C34.2741 24.2733 34.0941 24.3318 33.9582 24.447L29.9001 27.4118C29.3781 27.8079 28.6302 27.8079 28.1001 27.4118L24.0501 24.447C23.7702 24.2576 23.3832 24.2823 23.1501 24.5047C22.9071 24.727 22.8801 25.0812 23.0862 25.3282L23.2041 25.4353L27.2991 28.3588C27.8031 28.7212 28.4142 28.9188 29.0541 28.9188C29.6922 28.9188 30.3141 28.7212 30.8172 28.3588L34.8771 25.3859Z" fill="#1E1E1E"/>
</svg>
