<svg width="54" height="56" viewBox="0 0 54 56" fill="none" xmlns="http://www.w3.org/2000/svg">
<rect x="0.101562" y="0.25" width="53.2844" height="55.5" rx="10" fill="#DBCD09"/>
<path fill-rule="evenodd" clip-rule="evenodd" d="M20.9717 15.9746C20.589 15.9746 20.2219 16.133 19.9513 16.4149C19.6806 16.6968 19.5286 17.0791 19.5286 17.4777V18.9809H18.0855C17.32 18.9809 16.5859 19.2976 16.0446 19.8614C15.5033 20.4252 15.1992 21.1898 15.1992 21.9871V37.0184C15.1992 37.8157 15.5033 38.5803 16.0446 39.1441C16.5859 39.7079 17.32 40.0246 18.0855 40.0246H35.4029C36.1684 40.0246 36.9025 39.7079 37.4438 39.1441C37.985 38.5803 38.2891 37.8157 38.2891 37.0184V21.9871C38.2891 21.1898 37.985 20.4252 37.4438 19.8614C36.9025 19.2976 36.1684 18.9809 35.4029 18.9809H33.9598V17.4777C33.9598 17.0791 33.8077 16.6968 33.5371 16.4149C33.2665 16.133 32.8994 15.9746 32.5166 15.9746C32.1339 15.9746 31.7668 16.133 31.4962 16.4149C31.2256 16.6968 31.0735 17.0791 31.0735 17.4777V18.9809H22.4148V17.4777C22.4148 17.0791 22.2628 16.6968 21.9921 16.4149C21.7215 16.133 21.3544 15.9746 20.9717 15.9746ZM20.9717 23.4902C20.589 23.4902 20.2219 23.6486 19.9513 23.9305C19.6806 24.2124 19.5286 24.5947 19.5286 24.9934C19.5286 25.392 19.6806 25.7743 19.9513 26.0562C20.2219 26.3381 20.589 26.4965 20.9717 26.4965H32.5166C32.8994 26.4965 33.2665 26.3381 33.5371 26.0562C33.8077 25.7743 33.9598 25.392 33.9598 24.9934C33.9598 24.5947 33.8077 24.2124 33.5371 23.9305C33.2665 23.6486 32.8994 23.4902 32.5166 23.4902H20.9717Z" fill="#1E1E1E"/>
</svg>
