<svg width="73" height="44" viewBox="0 0 73 44" fill="none" xmlns="http://www.w3.org/2000/svg">
<path d="M14.7801 16.5149C14.7801 16.5149 20.19 8.79266 25.7174 7.27846C31.2447 5.76425 35.2835 8.58169 35.6451 8.86912C36.0067 9.15656 39.1099 11.475 40.0882 14.2919C41.0021 16.9363 41.2929 17.6675 41.4275 18.2619C41.6112 19.0736 42.5116 23.2409 47.5071 22.3401C51.1849 21.4967 51.1633 18.1435 50.7385 16.7638C50.3138 15.3841 49.0166 10.9191 46.0192 7.58486C43.0218 4.25061 39.1527 1.35787 34.7306 0.629506C30.3085 -0.0988547 26.5037 -0.539205 22.1033 1.30038C17.7028 3.13996 14.3439 6.32072 12.0269 9.27211C9.71003 12.2235 5.99009 17.8946 3.67253 23.7393C1.35498 29.584 0.151558 33.5311 0.0163569 34.3744C-0.118844 35.2177 0.59734 36.2237 1.67449 36.425C2.75163 36.6262 3.88554 36.4439 4.353 35.6201C4.82047 34.7963 6.80257 29.9697 7.37143 28.9327C8.81719 26.298 12.5684 19.2777 14.7801 16.5155V16.5149Z" fill="#F5E82E"/>
<path d="M58.2209 19.9848C58.2209 19.9848 52.8108 27.7069 47.2834 29.2211C41.7561 30.7353 37.7172 27.9179 37.3556 27.6304C36.994 27.343 33.8907 25.0246 32.9124 22.2078C31.9985 19.5634 31.7077 18.8322 31.5731 18.2378C31.3894 17.4261 30.4889 13.2589 25.4934 14.1597C21.8155 15.003 21.8372 18.3562 22.262 19.7359C22.6873 21.1155 23.9839 25.5805 26.9813 28.9147C29.9787 32.2489 33.848 35.1422 38.2695 35.8705C42.691 36.5989 46.4965 37.0392 50.8969 35.1996C55.2974 33.3601 58.6564 30.1794 60.9734 27.228C63.2903 24.2773 67.011 18.6051 69.3279 12.7605C71.6449 6.9159 72.8489 2.9689 72.9841 2.12558C73.1193 1.28226 72.4031 0.27625 71.326 0.0750486C70.2488 -0.126153 69.1149 0.0560782 68.6474 0.879854C68.18 1.70363 66.1978 6.53016 65.629 7.56721C64.1832 10.2018 60.4319 17.222 58.2202 19.9842L58.2209 19.9848Z" fill="#F5E82E"/>
<path fill-rule="evenodd" clip-rule="evenodd" d="M49.2056 14.3589C49.1086 14.2899 48.9912 14.208 48.8549 14.1151C48.4243 13.8217 47.8038 13.4193 47.0406 12.9806C45.5175 12.1052 43.4097 11.0756 41.0965 10.4845C38.7855 9.89389 36.229 9.73092 33.8404 10.6411C31.4363 11.5573 29.2737 13.5334 27.7156 17.0799C27.7089 17.0951 27.703 17.1107 27.6978 17.1265C25.1242 25.0474 30.0883 31.7958 35.7399 36.4726C38.5827 38.825 41.6441 40.6938 44.1273 41.9762C45.3693 42.6176 46.4718 43.1149 47.3354 43.4538C47.7668 43.6231 48.1434 43.7548 48.4511 43.8453C48.7436 43.9313 49.0185 43.994 49.2257 43.9957C49.4431 43.9975 49.7344 43.9263 50.0373 43.8324C50.3594 43.7325 50.7564 43.5865 51.2122 43.3993C52.1247 43.0246 53.2941 42.476 54.6081 41.7771C57.235 40.3797 60.4613 38.3696 63.3853 35.9214C66.3037 33.4778 68.9545 30.57 70.3852 27.3696C71.8258 24.1468 72.0267 20.6247 70.0293 17.0377C70.0213 17.0235 70.0127 17.0096 70.0034 16.9962C67.7389 13.7296 65.2784 11.9128 62.837 11.0583C60.3981 10.2047 58.0257 10.3279 55.9628 10.8597C53.9031 11.3907 52.1389 12.3318 50.8941 13.1345C50.2704 13.5368 49.7735 13.9066 49.4313 14.177C49.3464 14.244 49.2711 14.305 49.2056 14.3589ZM49.583 21.3496L49.5839 21.3488L49.588 21.3447L49.6064 21.3267C49.6231 21.3104 49.6486 21.2857 49.6825 21.2534C49.7504 21.1887 49.8519 21.0938 49.9839 20.9751C50.248 20.7377 50.6334 20.4057 51.1147 20.0313C52.0801 19.2805 53.4191 18.3689 54.931 17.7037C56.4459 17.0371 58.0993 16.6333 59.7096 16.8508C61.2963 17.0651 62.8941 17.8894 64.3168 19.7784C65.4352 21.5825 65.2707 23.5069 64.2809 25.4572C63.2791 27.4313 61.4514 29.3795 59.3614 31.111C57.2779 32.8371 54.9681 34.3196 53.044 35.3696C52.0822 35.8945 51.223 36.3078 50.5424 36.5883C50.2017 36.7288 49.9116 36.8335 49.6794 36.9023C49.4365 36.9743 49.2926 36.9959 49.2296 36.9959C49.1698 36.9959 49.034 36.9779 48.8067 36.9195C48.5891 36.8634 48.316 36.7779 47.9947 36.6622C47.3526 36.4311 46.5373 36.0871 45.6206 35.6402C43.7863 34.7462 41.5681 33.4518 39.5391 31.8532C37.5058 30.2512 35.6912 28.3661 34.6274 26.2984C33.5734 24.2497 33.2586 22.0314 34.1884 19.695C35.1226 17.719 36.4546 16.8679 37.9166 16.6383C39.4222 16.4017 41.1317 16.8148 42.7837 17.5185C44.4266 18.2182 45.957 19.1811 47.082 19.9748C47.6431 20.3706 48.1001 20.7221 48.4161 20.9738C48.574 21.0997 48.6965 21.2005 48.779 21.2694L48.8459 21.3256L48.8721 21.3479L48.895 21.3676L48.9003 21.3722L48.9015 21.3731C49.0998 21.5455 49.3973 21.5352 49.583 21.3496Z" fill="#EA404A"/>
<path d="M14.7801 16.7581C14.7801 16.7581 20.19 9.03583 25.7174 7.52162C31.2447 6.00741 35.2835 8.82485 35.6451 9.11229C36.0067 9.39972 39.1099 11.7182 40.0882 14.535C41.0021 17.1794 41.2929 17.9107 41.4275 18.5051C41.6112 19.3168 42.5116 23.484 47.5071 22.5832C51.1849 21.7399 51.1633 18.3867 50.7385 17.007C50.3138 15.6273 49.0166 11.1623 46.0192 7.82803C43.0218 4.49378 39.1527 1.60103 34.7306 0.87267C30.3085 0.144309 26.5037 -0.296041 22.1033 1.54354C17.7028 3.38313 14.3439 6.56389 12.0269 9.51527C9.71003 12.4667 5.99009 18.1378 3.67253 23.9825C1.35498 29.8272 0.151558 33.7742 0.0163569 34.6176C-0.118844 35.4609 0.59734 36.4669 1.67449 36.6681C2.75163 36.8693 3.88554 36.6871 4.353 35.8633C4.82047 35.0395 6.80257 30.2129 7.37143 29.1758C8.81719 26.5412 12.5684 19.5209 14.7801 16.7586V16.7581Z" fill="#F5E82E"/>
</svg>
